<?xml version="1.0" encoding="utf-8"?>
<svg
	version="1.1"
	xmlns="http://www.w3.org/2000/svg"
	xmlns:xlink="http://www.w3.org/1999/xlink"
	x="0%" y="0%"
	width="100%" height="100%"
	viewBox="0 0 512.0 512.0"
	enable-background="new 0 0 512.0 512.0"
	xml:space="preserve">
	<path
		fill="#D7D7D7"
		stroke="#000000"
		fill-opacity="1.000"
		stroke-opacity="1.000"
		fill-rule="nonzero"
		stroke-width="20.415163"
		stroke-linejoin="miter"
		stroke-linecap="square"
		d="M133.30,124.21L376.93,124.21A40.61 40.61 0 0 1 417.54,164.82L417.54,434.11A40.61 40.61 0 0 1 376.93,474.72L133.30,474.72A40.61 40.61 0 0 1 92.70,434.11L92.70,164.82A40.61 40.61 0 0 1 133.30,124.21z"/>
	<path
		fill="#000000"
		stroke="#000000"
		fill-opacity="1.000"
		stroke-opacity="1.000"
		fill-rule="nonzero"
		stroke-width="4.304544"
		stroke-linejoin="miter"
		stroke-linecap="square"
		d="M131.23,147.26L379.00,147.26A6.49 6.49 0 0 1 385.49,153.74L385.49,192.68A6.49 6.49 0 0 1 379.00,199.17L131.23,199.17A6.49 6.49 0 0 1 124.74,192.68L124.74,153.74A6.49 6.49 0 0 1 131.23,147.26z"/>
	<path
		fill="#737373"
		stroke="#000000"
		fill-opacity="1.000"
		stroke-opacity="1.000"
		fill-rule="nonzero"
		stroke-width="0.0"
		stroke-linejoin="miter"
		stroke-linecap="square"
		d="M342.84,326.82L367.26,326.82L367.26,450.65L342.84,450.65z"/>
	<path
		fill="#737373"
		stroke="#000000"
		fill-opacity="1.000"
		stroke-opacity="1.000"
		fill-rule="nonzero"
		stroke-width="0.0"
		stroke-linejoin="miter"
		stroke-linecap="square"
		d="M290.26,325.45L314.68,325.45L314.68,449.28L290.26,449.28z"/>
	<path
		fill="#000000"
		stroke="#000000"
		fill-opacity="1.000"
		stroke-opacity="1.000"
		fill-rule="nonzero"
		stroke-width="2.0903091"
		stroke-linejoin="miter"
		stroke-linecap="square"
		d="M284.93,335.58L320.00,335.58A3.30 3.30 0 0 1 323.30,338.88L323.30,358.67A3.30 3.30 0 0 1 320.00,361.97L284.93,361.97A3.30 3.30 0 0 1 281.63,358.67L281.63,338.88A3.30 3.30 0 0 1 284.93,335.58z"/>
	<path
		fill="#000000"
		stroke="#000000"
		fill-opacity="1.000"
		stroke-opacity="1.000"
		fill-rule="nonzero"
		stroke-width="2.0903091"
		stroke-linejoin="miter"
		stroke-linecap="square"
		d="M337.51,383.37L372.59,383.37A3.30 3.30 0 0 1 375.89,386.67L375.89,406.46A3.30 3.30 0 0 1 372.59,409.76L337.51,409.76A3.30 3.30 0 0 1 334.22,406.46L334.22,386.67A3.30 3.30 0 0 1 337.51,383.37z"/>
	<path
		fill="#000000"
		stroke="#000000"
		fill-opacity="1.000"
		stroke-opacity="1.000"
		fill-rule="nonzero"
		stroke-width="2.0903091"
		stroke-linejoin="miter"
		stroke-linecap="square"
		d="M195.38,319.35C231.13,319.35,260.11,347.17,260.11,381.50C260.11,415.82,231.13,443.65,195.38,443.65C159.63,443.65,130.65,415.82,130.65,381.50C130.65,347.17,159.63,319.35,195.38,319.35z"/>
	<path
		fill="#D7D7D7"
		stroke="#000000"
		fill-opacity="1.000"
		stroke-opacity="1.000"
		fill-rule="nonzero"
		stroke-width="2.0903091"
		stroke-linejoin="miter"
		stroke-linecap="square"
		d="M247.89,357.30C253.71,357.30,258.44,362.36,258.44,368.61C258.44,374.86,253.71,379.93,247.89,379.93C242.06,379.93,237.34,374.86,237.34,368.61C237.34,362.36,242.06,357.30,247.89,357.30z"/>
	<path
		fill="#FFFFFF"
		stroke="#00F417"
		fill-opacity="0.000"
		stroke-opacity="1.000"
		fill-rule="nonzero"
		stroke-width="5.12"
		stroke-linejoin="miter"
		stroke-linecap="square"
		d="M132.23,174.29L147.87,166.12L163.52,174.29L174.50,165.05L189.77,173.48L199.15,163.32L211.45,173.43L231.68,155.16L244.36,183.94L253.48,161.76L266.57,177.79L282.79,162.44L299.47,177.13L307.69,158.14L323.26,184.47L339.14,159.33L354.91,183.61L361.40,166.08L381.68,181.06"/>
	<path
		fill="#000000"
		stroke="#000000"
		fill-opacity="1.000"
		stroke-opacity="1.000"
		fill-rule="nonzero"
		stroke-width="2.0903091"
		stroke-linejoin="miter"
		stroke-linecap="square"
		d="M414.81,165.18L471.08,165.18L471.08,330.43L414.81,330.43z"/>
	<path
		fill="#FFFFFF"
		stroke="#000000"
		fill-opacity="0.004"
		stroke-opacity="1.000"
		fill-rule="nonzero"
		stroke-width="19.863403"
		stroke-linejoin="miter"
		stroke-linecap="square"
		d="M65.35,166.12C84.53,-14.27,442.94,-14.27,442.94,177.13"/>
	<path
		fill="#000000"
		stroke="#000000"
		fill-opacity="1.000"
		stroke-opacity="1.000"
		fill-rule="nonzero"
		stroke-width="2.0903091"
		stroke-linejoin="miter"
		stroke-linecap="square"
		d="M34.91,165.85L91.18,165.85L91.18,331.10L34.91,331.10z"/>
	<path
		fill="#000000"
		stroke="#000000"
		fill-opacity="1.000"
		stroke-opacity="1.000"
		fill-rule="nonzero"
		stroke-width="2.0903091"
		stroke-linejoin="miter"
		stroke-linecap="square"
		d="M470.61,179.55A34.62 68.27 -0.00 1 1 471.54,316.07"/>
	<path
		fill="#000000"
		stroke="#000000"
		fill-opacity="1.000"
		stroke-opacity="1.000"
		fill-rule="nonzero"
		stroke-width="2.0903091"
		stroke-linejoin="miter"
		stroke-linecap="square"
		d="M35.10,316.72A34.62 68.27 181.89 1 1 38.49,180.24"/>
	<path
		fill="#000000"
		stroke="#000000"
		fill-opacity="1.000"
		stroke-opacity="1.000"
		fill-rule="nonzero"
		stroke-width="0.0"
		stroke-linejoin="miter"
		stroke-linecap="square"
		d="M118.97,212.76L165.92,212.76L165.92,255.20L118.97,255.20z"/>
	<path
		fill="#000000"
		stroke="#000000"
		fill-opacity="1.000"
		stroke-opacity="1.000"
		fill-rule="nonzero"
		stroke-width="0.0"
		stroke-linejoin="miter"
		stroke-linecap="square"
		d="M173.12,212.76L220.07,212.76L220.07,255.20L173.12,255.20z"/>
	<path
		fill="#000000"
		stroke="#000000"
		fill-opacity="1.000"
		stroke-opacity="1.000"
		fill-rule="nonzero"
		stroke-width="0.0"
		stroke-linejoin="miter"
		stroke-linecap="square"
		d="M227.83,212.76L274.77,212.76L274.77,255.20L227.83,255.20z"/>
	<path
		fill="#000000"
		stroke="#000000"
		fill-opacity="1.000"
		stroke-opacity="1.000"
		fill-rule="nonzero"
		stroke-width="0.0"
		stroke-linejoin="miter"
		stroke-linecap="square"
		d="M285.12,212.76L332.07,212.76L332.07,255.20L285.12,255.20z"/>
	<path
		fill="#000000"
		stroke="#000000"
		fill-opacity="1.000"
		stroke-opacity="1.000"
		fill-rule="nonzero"
		stroke-width="0.0"
		stroke-linejoin="miter"
		stroke-linecap="square"
		d="M119.37,262.17L166.32,262.17L166.32,304.61L119.37,304.61z"/>
	<path
		fill="#000000"
		stroke="#000000"
		fill-opacity="1.000"
		stroke-opacity="1.000"
		fill-rule="nonzero"
		stroke-width="0.0"
		stroke-linejoin="miter"
		stroke-linecap="square"
		d="M174.00,262.03L331.62,262.03L331.62,304.61L174.00,304.61z"/>
	<path
		fill="#000000"
		stroke="#000000"
		fill-opacity="1.000"
		stroke-opacity="1.000"
		fill-rule="nonzero"
		stroke-width="0.0"
		stroke-linejoin="miter"
		stroke-linecap="square"
		d="M337.76,212.59L384.70,212.59L384.70,255.03L337.76,255.03z"/>
	<path
		fill="#000000"
		stroke="#000000"
		fill-opacity="1.000"
		stroke-opacity="1.000"
		fill-rule="nonzero"
		stroke-width="0.0"
		stroke-linejoin="miter"
		stroke-linecap="square"
		d="M337.57,262.00L384.52,262.00L384.52,304.44L337.57,304.44z"/>
</svg>